<?xml version="1.0" standalone="no"?>
<!DOCTYPE svg PUBLIC "-//W3C//DTD SVG 20010904//EN"
 "http://www.w3.org/TR/2001/REC-SVG-20010904/DTD/svg10.dtd">
<svg version="1.0" xmlns="http://www.w3.org/2000/svg"
 width="972.000000pt" height="1280.000000pt" viewBox="0 0 972.000000 1280.000000"
 preserveAspectRatio="xMidYMid meet">
<metadata>
Created by potrace 1.15, written by Peter Selinger 2001-2017
</metadata>
<g transform="translate(0.000000,1280.000000) scale(0.100000,-0.100000)"
fill="#000000" stroke="none">
<path d="M858 12785 c-108 -27 -232 -101 -341 -204 -60 -57 -105 -116 -95
-126 2 -2 43 1 92 6 59 6 128 23 205 49 63 22 125 40 138 40 34 0 52 -37 65
-135 14 -109 4 -176 -51 -373 -88 -311 -75 -413 80 -600 142 -172 306 -253
484 -238 110 9 222 49 432 154 231 116 309 145 393 145 127 1 228 -75 443
-332 259 -310 344 -362 642 -394 l118 -12 -134 -90 c-154 -104 -291 -175 -367
-193 -69 -16 -200 -15 -231 1 -18 9 -41 49 -86 153 -105 241 -182 361 -274
428 -68 50 -115 66 -192 66 -90 0 -157 -26 -289 -110 -296 -190 -491 -261
-710 -261 -192 1 -324 43 -402 130 -57 63 -81 123 -119 301 -37 172 -62 239
-110 294 -116 132 -265 95 -392 -97 -19 -29 -58 -97 -86 -152 -28 -55 -56
-107 -63 -116 -9 -13 -8 -24 2 -48 15 -38 21 -39 43 -2 12 21 36 35 94 57 185
69 278 21 441 -226 41 -63 105 -160 141 -215 166 -252 323 -343 525 -305 87
16 194 71 391 200 291 190 427 248 553 236 114 -10 204 -72 387 -267 136 -145
207 -203 304 -252 83 -41 87 -42 185 -42 172 0 251 37 523 241 169 128 355
254 372 254 3 0 6 -138 6 -308 0 -373 20 -591 91 -1002 32 -185 53 -266 120
-474 68 -212 82 -291 65 -383 -25 -138 -92 -246 -327 -525 -303 -359 -438
-557 -597 -877 -62 -124 -123 -258 -135 -297 -68 -211 -69 -470 -3 -658 73
-208 246 -386 468 -480 42 -18 58 -30 57 -43 -1 -10 -13 -71 -28 -136 -124
-546 -196 -1435 -195 -2427 0 -383 10 -585 40 -810 25 -193 30 -400 10 -480
-30 -120 -100 -216 -201 -273 -25 -14 -101 -46 -169 -72 -146 -54 -172 -68
-203 -109 -35 -47 -32 -138 5 -195 32 -48 104 -87 185 -101 44 -7 45 -8 12
-10 -19 -1 -28 -4 -20 -7 8 -4 33 -21 55 -38 47 -38 161 -96 225 -114 25 -7
56 -17 70 -22 38 -14 292 -61 395 -74 28 -4 61 -8 75 -10 14 -2 52 -7 85 -10
33 -4 67 -8 75 -10 8 -2 80 -9 160 -15 80 -6 156 -13 170 -15 14 -2 79 -6 145
-10 66 -4 134 -8 150 -10 17 -2 107 -6 200 -10 94 -3 206 -8 250 -11 107 -8
1163 -8 1295 0 58 3 170 8 250 11 80 3 170 8 200 10 30 2 102 7 160 10 58 3
121 8 140 10 19 2 73 7 120 10 72 5 187 18 375 41 331 41 512 84 667 160 l92
44 -60 1 c-52 2 -48 3 32 10 154 14 253 63 275 139 30 99 -100 235 -389 408
-63 37 -98 65 -109 86 -38 73 -26 260 33 551 100 486 134 831 134 1360 0 614
-75 1453 -185 2075 -18 104 -18 100 0 100 8 0 43 10 77 21 232 79 376 230 424
445 54 245 -45 792 -224 1239 -156 389 -328 643 -546 808 -231 174 -318 285
-368 472 -41 152 -44 275 -17 767 31 578 33 1155 6 1373 -33 255 -90 471 -168
628 -117 238 -319 438 -589 585 -176 96 -454 183 -696 218 -164 24 -496 24
-654 1 -585 -89 -1032 -356 -1277 -763 -31 -51 -60 -83 -105 -116 -35 -26
-110 -91 -168 -144 -200 -186 -271 -227 -390 -227 -126 -1 -214 50 -410 238
-265 253 -434 368 -591 401 -113 23 -196 4 -331 -77 -197 -120 -273 -145 -402
-136 -159 11 -322 85 -401 181 -53 64 -93 160 -109 261 -8 50 -17 197 -20 328
-7 271 -20 351 -69 424 -62 92 -210 133 -349 98z m5429 -10374 c327 -49 653
-163 779 -274 84 -74 98 -140 68 -312 -9 -53 -14 -118 -11 -159 2 -37 1 -63
-3 -56 -5 7 -36 14 -76 16 -38 2 -100 6 -139 9 -398 28 -1604 27 -2115 -2 -87
-5 -118 -10 -128 -22 -17 -21 -16 -18 47 139 71 174 107 235 195 327 155 164
355 266 634 323 215 43 499 48 749 11z"/>
</g>
</svg>
